<svg xmlns="http://www.w3.org/2000/svg" width="65.42222222222222" height="64" fill="none"><path fill-rule="evenodd" clip-rule="evenodd" d="M41.071 11.602c1.496-.616 3.222.088 3.845 1.579a2.884 2.884 0 01-1.615 3.795 2.944 2.944 0 01-2.919-.396l-.007.007a.109.109 0 00-.015-.011l-.015-.011c-.608-.474-.854-1.07-.922-1.235a.378.378 0 00-.019-.042c-.059.007-.259.066-.192.381l.407 1.241-5.489 2.283a11.631 11.631 0 01-.163 6.328l2.859 1.405c.02.01.033.02.046.03a.35.35 0 00.02.014 2.954 2.954 0 012.912-.47c1.518.58 2.281 2.268 1.696 3.773a2.956 2.956 0 01-3.807 1.682 2.914 2.914 0 01-1.845-2.283h-.007c-.008-.015-.008-.03-.008-.037-.112-.777.134-1.386.195-1.537l.013-.034c-.052-.037-.237-.125-.408.146l-.57 1.175-2.303-1.191a11.847 11.847 0 01-4.378 4.22l2.607 6.307c.004.011.006.024.008.037a.477.477 0 00.007.037c1.015.132 1.933.77 2.348 1.769a2.907 2.907 0 01-1.592 3.81c-1.497.617-3.223-.088-3.845-1.578-.422-.999-.222-2.093.4-2.893l-.007-.007a.104.104 0 00.01-.015 3.037 3.037 0 011.257-.928c.025-.01.04-.016.044-.019-.008-.059-.067-.257-.385-.19l-1.252.403-2.319-5.623c-1.044.286-2.111.44-3.178.44-1.007 0-2.007-.14-2.992-.396l-1.411 2.895a.268.268 0 01-.03.046.381.381 0 00-.015.02c.622.8.815 1.894.4 2.893-.622 1.49-2.34 2.195-3.844 1.578A2.904 2.904 0 0113 37.19c.422-1.006 1.333-1.637 2.348-1.77v-.007h.037c.78-.097 1.384.161 1.54.227.021.01.034.015.038.016.03-.044.133-.228-.14-.404l-1.171-.595 1.1-2.147a11.819 11.819 0 01-4.556-4.338l-6.267 2.562-.037.007c-.013.002-.026.004-.037.008a2.914 2.914 0 01-1.785 2.327c-1.497.616-3.223-.088-3.845-1.579a2.907 2.907 0 011.593-3.81 2.944 2.944 0 012.918.397l.008-.008.015.011a3.01 3.01 0 01.956 1.288c.059-.007.259-.065.192-.381l-.408-1.24 5.49-2.24a11.678 11.678 0 01-.17-6.255l-3.145-1.23c-.02-.01-.033-.02-.046-.03l-.02-.014a2.954 2.954 0 01-2.912.47C3.178 17.875 2.415 16.186 3 14.68A2.956 2.956 0 016.808 13a2.914 2.914 0 011.844 2.283h.007c.008.015.008.03.008.037a2.983 2.983 0 01-.208 1.57c.052.038.237.126.408-.146l.57-1.175 2.41.952a11.942 11.942 0 014.69-4.809L14.07 5.876a.21.21 0 01-.007-.037c-.002-.013-.004-.025-.008-.036-1.015-.133-1.933-.771-2.348-1.77A2.907 2.907 0 0113.3.223c1.496-.616 3.222.088 3.844 1.579.423.998.223 2.092-.4 2.892l.008.007a.102.102 0 00-.011.015l-.012.015c-.478.602-1.08.846-1.246.913-.024.01-.039.016-.043.02.008.058.067.256.386.19l1.259-.404 2.17 5.132a12.135 12.135 0 016.6.044l1.5-2.59a.27.27 0 01.03-.045l.015-.02a2.893 2.893 0 01-.4-2.893c.622-1.49 2.34-2.195 3.845-1.578a2.912 2.912 0 011.592 3.817c-.422 1.006-1.333 1.638-2.348 1.77v.007h-.037a2.99 2.99 0 01-1.578-.242c-.03.044-.133.227.14.404l1.171.594-1.226 1.943a11.84 11.84 0 014.549 4.684l6.104-2.533a.222.222 0 01.037-.007.222.222 0 00.037-.007 2.914 2.914 0 011.785-2.328zM17 19a2 2 0 100-4 2 2 0 000 4zm13 7.5a1.5 1.5 0 11-3 0 1.5 1.5 0 013 0zM29 22a2 2 0 100-4 2 2 0 000 4zm-12 3.5a1.5 1.5 0 11-3 0 1.5 1.5 0 013 0zm7.5-9.5a1.5 1.5 0 100-3 1.5 1.5 0 000 3zm.5 5a3 3 0 11-6 0 3 3 0 016 0zm-2.5 10a2.5 2.5 0 100-5 2.5 2.5 0 000 5z" fill="#01689b"></path></svg>